<svg width="101" height="66" viewBox="0 0 101 66" fill="none" xmlns="http://www.w3.org/2000/svg">
<path d="M6.78 0L32.62 51.68L34.92 47.09L40.57 35.78L45.96 25L49.3391 31.8118L43.96 42.57L38.31 53.88L32.62 65.26L0 0H6.78Z" fill="#191516"/>
<path d="M58.46 0.00999832H65.24L54.5 22L51 15L58.46 0V0.00999832Z" fill="#191516"/>
<path d="M100.25 0L67.62 65.26L61.93 53.88L60.8 51.62L57.4 44.83L56.28 42.56L35 0H41.78L59.67 35.78L60.8 38.04L64.19 44.83L65.33 47.09L67.62 51.68L93.46 0H100.25Z" fill="#BF1B28"/>
</svg>
